<mxfile host="app.diagrams.net" modified="2023-10-05T08:38:40.930Z" agent="Mozilla/5.0 (Windows NT 10.0; Win64; x64) AppleWebKit/537.36 (KHTML, like Gecko) Chrome/117.0.0.0 Safari/537.36 Edg/117.0.2045.47" etag="eQgRdr1c4yi17CXA2V7i" version="22.0.2" type="github">
  <diagram name="Page-1" id="87WC3KkdrnnZ19cBRQoI">
    <mxGraphModel dx="1431" dy="824" grid="1" gridSize="10" guides="1" tooltips="1" connect="1" arrows="1" fold="1" page="1" pageScale="1" pageWidth="850" pageHeight="1100" math="1" shadow="0">
      <root>
        <mxCell id="0" />
        <mxCell id="1" parent="0" />
        <mxCell id="owsfv4eC_n2FTrsO5rsx-23" style="edgeStyle=orthogonalEdgeStyle;rounded=0;orthogonalLoop=1;jettySize=auto;html=1;entryX=0.5;entryY=0;entryDx=0;entryDy=0;" edge="1" parent="1" source="owsfv4eC_n2FTrsO5rsx-1" target="owsfv4eC_n2FTrsO5rsx-3">
          <mxGeometry relative="1" as="geometry" />
        </mxCell>
        <mxCell id="owsfv4eC_n2FTrsO5rsx-1" value="Load all exogenous time series" style="rounded=1;whiteSpace=wrap;html=1;" vertex="1" parent="1">
          <mxGeometry x="80" y="40" width="120" height="60" as="geometry" />
        </mxCell>
        <mxCell id="owsfv4eC_n2FTrsO5rsx-24" value="" style="edgeStyle=orthogonalEdgeStyle;rounded=0;orthogonalLoop=1;jettySize=auto;html=1;" edge="1" parent="1" source="owsfv4eC_n2FTrsO5rsx-3" target="owsfv4eC_n2FTrsO5rsx-4">
          <mxGeometry relative="1" as="geometry" />
        </mxCell>
        <mxCell id="owsfv4eC_n2FTrsO5rsx-3" value="&lt;p style=&quot;line-height: 100%;&quot;&gt;Run NPC scenario `\bb{B}` on `[T_{&quot;start&quot;}^{s_1}, T_{&quot;end&quot;}^{s_K}]`&lt;/p&gt;" style="rounded=1;whiteSpace=wrap;html=1;verticalAlign=middle;spacing=-3;" vertex="1" parent="1">
          <mxGeometry x="80" y="160" width="120" height="60" as="geometry" />
        </mxCell>
        <mxCell id="owsfv4eC_n2FTrsO5rsx-25" value="" style="edgeStyle=orthogonalEdgeStyle;rounded=0;orthogonalLoop=1;jettySize=auto;html=1;" edge="1" parent="1" source="owsfv4eC_n2FTrsO5rsx-4" target="owsfv4eC_n2FTrsO5rsx-5">
          <mxGeometry relative="1" as="geometry" />
        </mxCell>
        <mxCell id="owsfv4eC_n2FTrsO5rsx-4" value="Load scenario `s` data" style="rounded=1;whiteSpace=wrap;html=1;" vertex="1" parent="1">
          <mxGeometry x="80" y="270" width="120" height="60" as="geometry" />
        </mxCell>
        <mxCell id="owsfv4eC_n2FTrsO5rsx-5" value="" style="shape=line;html=1;strokeWidth=6;strokeColor=#ff0000;" vertex="1" parent="1">
          <mxGeometry x="41" y="380" width="200" height="10" as="geometry" />
        </mxCell>
        <mxCell id="owsfv4eC_n2FTrsO5rsx-6" value="" style="edgeStyle=orthogonalEdgeStyle;html=1;verticalAlign=bottom;endArrow=open;endSize=8;strokeColor=#ff0000;rounded=0;entryX=0.5;entryY=0;entryDx=0;entryDy=0;" edge="1" source="owsfv4eC_n2FTrsO5rsx-5" parent="1" target="owsfv4eC_n2FTrsO5rsx-11">
          <mxGeometry relative="1" as="geometry">
            <mxPoint x="141" y="440" as="targetPoint" />
          </mxGeometry>
        </mxCell>
        <mxCell id="owsfv4eC_n2FTrsO5rsx-7" value="" style="ellipse;html=1;shape=startState;fillColor=#000000;strokeColor=#ff0000;" vertex="1" parent="1">
          <mxGeometry x="280" y="55" width="30" height="30" as="geometry" />
        </mxCell>
        <mxCell id="owsfv4eC_n2FTrsO5rsx-8" value="" style="edgeStyle=orthogonalEdgeStyle;html=1;verticalAlign=bottom;endArrow=open;endSize=8;strokeColor=#ff0000;rounded=0;entryX=1;entryY=0.5;entryDx=0;entryDy=0;" edge="1" source="owsfv4eC_n2FTrsO5rsx-7" parent="1" target="owsfv4eC_n2FTrsO5rsx-1">
          <mxGeometry relative="1" as="geometry">
            <mxPoint x="295" y="250" as="targetPoint" />
          </mxGeometry>
        </mxCell>
        <mxCell id="owsfv4eC_n2FTrsO5rsx-16" style="edgeStyle=orthogonalEdgeStyle;rounded=0;orthogonalLoop=1;jettySize=auto;html=1;entryX=0.5;entryY=0;entryDx=0;entryDy=0;" edge="1" parent="1" source="owsfv4eC_n2FTrsO5rsx-11" target="owsfv4eC_n2FTrsO5rsx-15">
          <mxGeometry relative="1" as="geometry" />
        </mxCell>
        <mxCell id="owsfv4eC_n2FTrsO5rsx-11" value="&lt;div style=&quot;text-align: center;&quot;&gt;&lt;span style=&quot;background-color: initial;&quot;&gt;Transform data to start from `T_{&quot;start&quot;}^k`&lt;/span&gt;&lt;/div&gt;- init from NPC, `\bb{B}`&lt;br&gt;&lt;div style=&quot;&quot;&gt;&lt;span style=&quot;background-color: initial;&quot;&gt;- shocks for `s`&lt;/span&gt;&lt;/div&gt;" style="rounded=1;whiteSpace=wrap;html=1;align=left;" vertex="1" parent="1">
          <mxGeometry x="81" y="460" width="119" height="60" as="geometry" />
        </mxCell>
        <mxCell id="owsfv4eC_n2FTrsO5rsx-15" value="Calculate scenario `s` on `\cc{I}^k = [T_{&quot;start&quot;}^k,T_{&quot;end&quot;}^k]`" style="rounded=1;whiteSpace=wrap;html=1;" vertex="1" parent="1">
          <mxGeometry x="81" y="560" width="120" height="60" as="geometry" />
        </mxCell>
        <mxCell id="owsfv4eC_n2FTrsO5rsx-22" style="edgeStyle=orthogonalEdgeStyle;rounded=0;orthogonalLoop=1;jettySize=auto;html=1;" edge="1" parent="1" source="owsfv4eC_n2FTrsO5rsx-17" target="owsfv4eC_n2FTrsO5rsx-19">
          <mxGeometry relative="1" as="geometry" />
        </mxCell>
        <mxCell id="owsfv4eC_n2FTrsO5rsx-17" value="" style="shape=line;html=1;strokeWidth=6;strokeColor=#ff0000;rotation=-180;" vertex="1" parent="1">
          <mxGeometry x="42" y="680" width="200" height="10" as="geometry" />
        </mxCell>
        <mxCell id="owsfv4eC_n2FTrsO5rsx-18" style="edgeStyle=orthogonalEdgeStyle;rounded=0;orthogonalLoop=1;jettySize=auto;html=1;entryX=0.505;entryY=1;entryDx=0;entryDy=0;entryPerimeter=0;" edge="1" parent="1" source="owsfv4eC_n2FTrsO5rsx-15" target="owsfv4eC_n2FTrsO5rsx-17">
          <mxGeometry relative="1" as="geometry" />
        </mxCell>
        <mxCell id="owsfv4eC_n2FTrsO5rsx-28" value="" style="edgeStyle=orthogonalEdgeStyle;rounded=0;orthogonalLoop=1;jettySize=auto;html=1;" edge="1" parent="1" source="owsfv4eC_n2FTrsO5rsx-19" target="owsfv4eC_n2FTrsO5rsx-27">
          <mxGeometry relative="1" as="geometry" />
        </mxCell>
        <mxCell id="owsfv4eC_n2FTrsO5rsx-19" value="Evaluate results for scenario `s` run in all time intervals `\cc{I}^1, \cdots,\cc{I}^K`" style="rounded=1;whiteSpace=wrap;html=1;" vertex="1" parent="1">
          <mxGeometry x="82" y="740" width="120" height="60" as="geometry" />
        </mxCell>
        <mxCell id="owsfv4eC_n2FTrsO5rsx-27" value="" style="ellipse;html=1;shape=endState;fillColor=#000000;strokeColor=#ff0000;" vertex="1" parent="1">
          <mxGeometry x="127" y="850" width="30" height="30" as="geometry" />
        </mxCell>
        <mxCell id="owsfv4eC_n2FTrsO5rsx-29" value="frame" style="shape=umlFrame;whiteSpace=wrap;html=1;pointerEvents=0;" vertex="1" parent="1">
          <mxGeometry x="370" y="285" width="300" height="200" as="geometry" />
        </mxCell>
      </root>
    </mxGraphModel>
  </diagram>
</mxfile>
